<?xml version="1.0" encoding="utf-8"?>
<!-- Generator: Adobe Illustrator 28.3.0, SVG Export Plug-In . SVG Version: 6.00 Build 0)  -->
<svg version="1.1" id="Layer_1" xmlns="http://www.w3.org/2000/svg" xmlns:xlink="http://www.w3.org/1999/xlink" x="0px" y="0px"
	 viewBox="0 0 100 125" style="enable-background:new 0 0 100 125;" xml:space="preserve">
<g>
	<g>
		<g>
			<path d="M83.6,38.3c-1.6-4.3-4-8.2-6.8-11.5l5.6-5.9l-13.9-3.3l-13.9-3.3l0,0.1l4.1,13.5l0.1,0.3l4.1,13.4l5.6-6
				c1.6,2,2.9,4.3,3.8,6.8c4.8,13-1.8,27.4-14.8,32.2C44.5,79.6,30,73,25.2,60C20.4,47.1,27,32.6,40,27.8c0.1,0,0.2,0,0.3-0.1L37,16
				c-0.4,0.1-0.8,0.3-1.2,0.4C16.5,23.5,6.6,45,13.8,64.3c7.1,19.3,28.6,29.1,47.9,22C80.9,79.1,90.8,57.6,83.6,38.3z"/>
		</g>
	</g>
</g>
</svg>
