<?xml version="1.0" encoding="utf-8"?>
<!-- Generator: Adobe Illustrator 28.3.0, SVG Export Plug-In . SVG Version: 6.00 Build 0)  -->
<svg version="1.1" id="Layer_1" xmlns="http://www.w3.org/2000/svg" xmlns:xlink="http://www.w3.org/1999/xlink" x="0px" y="0px"
	 viewBox="0 0 100 125" style="enable-background:new 0 0 100 125;" xml:space="preserve">
<path d="M50,0C22.4,0,0,22.4,0,50s22.4,50,50,50s50-22.4,50-50S77.6,0,50,0z M75,68.8H25c-1.1,0-2-0.9-2-2s0.9-2,2-2h50
	c1.1,0,2,0.9,2,2S76.1,68.8,75,68.8z M75,52H25c-1.1,0-2-0.9-2-2s0.9-2,2-2h50c1.1,0,2,0.9,2,2S76.1,52,75,52z M75,35.2H25
	c-1.1,0-2-0.9-2-2s0.9-2,2-2h50c1.1,0,2,0.9,2,2S76.1,35.2,75,35.2z"/>
</svg>
