<?xml version="1.0" encoding="utf-8"?>
<!-- Generator: Adobe Illustrator 28.3.0, SVG Export Plug-In . SVG Version: 6.00 Build 0)  -->
<svg version="1.1" id="Layer_1" xmlns="http://www.w3.org/2000/svg" xmlns:xlink="http://www.w3.org/1999/xlink" x="0px" y="0px"
	 viewBox="0 0 100 125" style="enable-background:new 0 0 100 125;" xml:space="preserve">
<path d="M89.4,85.4h-6.2V16.6c0-0.8-0.7-1.5-1.5-1.5H65.1c-0.8,0-1.5,0.7-1.5,1.5v68.7h-3.3V56.9c0-0.8-0.7-1.5-1.5-1.5H42.1
	c-0.8,0-1.5,0.7-1.5,1.5v28.5h-3.3v-53c0-0.8-0.7-1.5-1.5-1.5H19.1c-0.8,0-1.5,0.7-1.5,1.5v53h-3V10.6c0-2.2-1.8-4-4-4s-4,1.8-4,4
	v78.8c0,2.2,1.8,4,4,4h78.8c2.2,0,4-1.8,4-4S91.6,85.4,89.4,85.4z"/>
</svg>
