<?xml version="1.0" encoding="utf-8"?>
<!-- Generator: Adobe Illustrator 28.3.0, SVG Export Plug-In . SVG Version: 6.00 Build 0)  -->
<svg version="1.1" id="Layer_1" xmlns="http://www.w3.org/2000/svg" xmlns:xlink="http://www.w3.org/1999/xlink" x="0px" y="0px"
	 viewBox="0 0 100 125" style="enable-background:new 0 0 100 125;" xml:space="preserve">
<style type="text/css">
	.st0{fill-rule:evenodd;clip-rule:evenodd;}
</style>
<g>
	<g>
		<path class="st0" d="M99.1,45.1l-48-37.7c-0.7-0.6-1.7-0.6-2.4,0l-48,37.7c-0.4,0.3-0.7,0.8-0.7,1.3c-0.1,0.5,0.1,1,0.4,1.4
			l6.8,8.7c0.3,0.4,0.8,0.7,1.3,0.7c0.5,0.1,1-0.1,1.4-0.4l6.3-4.9V90c0,1.1,0.9,2,2,2h63.4c1.1,0,2-0.9,2-2V51.9l6.3,4.9
			c0.4,0.3,0.9,0.5,1.4,0.4c0.5-0.1,1-0.3,1.3-0.7l6.8-8.7C100.1,47,100,45.8,99.1,45.1"/>
	</g>
</g>
</svg>
