<?xml version="1.0" encoding="utf-8"?>
<!-- Generator: Adobe Illustrator 28.2.0, SVG Export Plug-In . SVG Version: 6.00 Build 0)  -->
<svg version="1.1" id="Layer_1" xmlns="http://www.w3.org/2000/svg" xmlns:xlink="http://www.w3.org/1999/xlink" x="0px" y="0px"
	 viewBox="0 0 840 1133" style="enable-background:new 0 0 840 1133;" xml:space="preserve">
<style type="text/css">
	.st0{opacity:0.877;fill-rule:evenodd;clip-rule:evenodd;fill:#21437D;enable-background:new    ;}
	.st1{opacity:0.973;fill-rule:evenodd;clip-rule:evenodd;fill:#FEFFFE;enable-background:new    ;}
</style>
<g>
	<path class="st0" d="M332.5,151.5c37.7,5.2,60.7,26.3,69,63.5c-1.7,8.3-6.9,12.1-15.5,11.5c-19.2-1.1-34.2-9.4-45-25
		c-6.7-12.4-11.2-25.6-13.5-39.5C327.6,157.6,329.3,154.1,332.5,151.5z M492.5,151.5c4.8-0.4,9.5,0.1,14,1.5c3.2,2.2,4.8,5.2,5,9
		c-2,15.4-7.2,29.5-15.5,42.5c-13,16.4-29.8,23.2-50.5,20.5c-4.3-1.3-6.8-4.1-7.5-8.5c-0.4-10.4,2.6-19.7,9-28
		C458.8,171.7,473.9,159.4,492.5,151.5z M282.5,227.5c14.6-0.8,28.6,1.7,42,7.5c50,31,102.7,36.3,158,16c16.2-8.2,33.2-14.2,51-18
		c53.7-6.8,90.8,14.7,111.5,64.5c16.8,47,20.1,95,10,144C628.9,563.9,561.4,655.4,452.5,716c-25.6,9.7-50.6,8.3-75-4
		c-52-29-94.9-68.2-128.5-117.5c-45.8-66.8-69.2-140.8-70-222c0.7-26.9,5.7-52.9,15-78C212.2,257.3,241.7,235,282.5,227.5z"/>
</g>
<g>
	<path class="st1" d="M443.5,86.5c9.6-1.6,16.8,1.7,21.5,10c0.7,2.3,0.7,4.7,0,7c-2.1,5.8-4.4,11.4-7,17c-0.5,3-0.7,6-0.5,9
		c18.4-5.1,37.1-9.3,56-12.5c9.2-1.1,17.9,0.5,26,5c5.9,5.5,8.5,12.4,8,20.5c-1.7,11.4-3.7,22.7-6,34c-0.2,9.3,4.1,15.5,13,18.5
		c19.7,4,38.7,10,57,18c36.6,21,60.1,52.2,70.5,93.5c13.5,59,11.8,117.7-5,176C651.2,571.9,602.7,646,531.5,705
		c-26.1,20.7-55.1,36.4-87,47c-21.4,4.3-42.4,3-63-4c-37.9-15.8-71.5-37.8-101-66C207,608.6,163.2,520.1,149,416.5
		c-5.8-46.8-0.1-92.2,17-136c16.6-37.3,44.1-62.8,82.5-76.5c12.9-3.7,25.9-7,39-10c7.1-3.6,10.4-9.4,10-17.5
		c-2.2-14.3-2.4-28.7-0.5-43c1.3-9.5,6.5-15.7,15.5-18.5c11.8-1.7,23.2,0,34,5c15,7.8,30.7,13.8,47,18c10.1,1.9,18.6-1,25.5-8.5
		c3.2-4.3,5.8-9,8-14c2.3-7.5,4.9-14.8,8-22C437.4,90.5,440.3,88.2,443.5,86.5z M332.5,151.5c-3.2,2.6-4.9,6.1-5,10.5
		c2.3,13.9,6.8,27.1,13.5,39.5c10.8,15.6,25.8,23.9,45,25c8.6,0.6,13.8-3.2,15.5-11.5C393.2,177.8,370.2,156.7,332.5,151.5z
		 M492.5,151.5c-18.6,7.9-33.7,20.2-45.5,37c-6.4,8.3-9.4,17.6-9,28c0.7,4.4,3.2,7.2,7.5,8.5c20.7,2.7,37.5-4.1,50.5-20.5
		c8.3-13,13.5-27.1,15.5-42.5c-0.2-3.8-1.8-6.8-5-9C502,151.6,497.3,151.1,492.5,151.5z M282.5,227.5c-40.8,7.5-70.3,29.8-88.5,67
		c-9.3,25.1-14.3,51.1-15,78c0.8,81.2,24.2,155.2,70,222c33.6,49.3,76.5,88.5,128.5,117.5c24.4,12.3,49.4,13.7,75,4
		C561.4,655.4,628.9,563.9,655,441.5c10.1-49,6.8-97-10-144c-20.7-49.8-57.8-71.3-111.5-64.5c-17.8,3.8-34.8,9.8-51,18
		c-55.3,20.3-108,15-158-16C311.1,229.2,297.1,226.7,282.5,227.5z"/>
</g>
</svg>
