<?xml version="1.0" encoding="utf-8"?>
<!-- Generator: Adobe Illustrator 28.2.0, SVG Export Plug-In . SVG Version: 6.00 Build 0)  -->
<svg version="1.1" id="Layer_1" xmlns="http://www.w3.org/2000/svg" xmlns:xlink="http://www.w3.org/1999/xlink" x="0px" y="0px"
	 viewBox="0 0 840 1133" style="enable-background:new 0 0 840 1133;" xml:space="preserve">
<style type="text/css">
	.st0{opacity:0.877;fill-rule:evenodd;clip-rule:evenodd;fill:#21437D;enable-background:new    ;}
	.st1{opacity:0.943;fill-rule:evenodd;clip-rule:evenodd;fill:#FEFFFE;enable-background:new    ;}
</style>
<g>
	<path class="st0" d="M374.5,240.5c14.4-0.4,28.7,0.1,43,1.5c31.6,23.8,53.3,54.6,65,92.5c-0.3,0.3-0.7,0.7-1,1
		c-37.6-21.3-77.9-30.8-121-28.5c-17.3,2.6-34.7,5.1-52,7.5c-15.2-0.4-29.8-3.2-44-8.5c-0.8-1.1-1.5-2.3-2-3.5
		c20.5-27.1,47.2-45.6,80-55.5C353.2,244.3,363.9,242.1,374.5,240.5z M448.5,240.5c40.3-2.6,73.8,11,100.5,41c3.4,4.4,6.4,9.1,9,14
		c1.3,4.1,0.1,7.2-3.5,9.5c-17.2,8.7-34.2,17.7-51,27c-3.9,1-6.4-0.5-7.5-4.5c-3.9-18.5-11.6-35.1-23-50
		c-9.2-11.8-18.3-23.7-27.5-35.5C446.7,241.8,447.7,241.3,448.5,240.5z M590.5,307.5c8.2-1.2,14,1.8,17.5,9c1.9,7.9,3.2,15.9,4,24
		c11.5,25.1,20.1,51.1,26,78c11.1,60-2.2,113.7-40,161c-20.1,22.4-43.9,38.7-71.5,49c11.8-25,22-50.7,30.5-77
		c31.1-19.9,51.8-47.5,62-83c2.6-7.5,0.1-11.8-7.5-13c-2.2,0.3-4,1.3-5.5,3c-6.6,27.4-20.8,50.1-42.5,68c-0.3-0.8-0.7-1.7-1-2.5
		c6-40,7.5-80.2,4.5-120.5c-0.7-7.1-2-14.1-4-21c-5.4-3.3-9.7-2.3-13,3c1.3,12.8,2.5,25.6,3.5,38.5c0,5.2-0.5,10.4-1.5,15.5
		c-13.5-9.5-27-19-40.5-28.5c-7.2-4-12.2-2.2-15,5.5c0.7,1.3,1.3,2.7,2,4c10.7,7,21,14.5,31,22.5c17.4,14.9,24.5,33.7,21.5,56.5
		c-5.5,38.7-17.2,75.3-35,110c-6.9,12.7-15.4,24.2-25.5,34.5c-6.2,5.1-13.2,7.1-21,6c-3.4-0.9-5-3-5-6.5
		c13.8-44.6,19.7-90.3,17.5-137c-3.1-36.3-15.4-68.9-37-98c-3.3-4-3.3-8,0-12C487.1,356.5,535.6,326.9,590.5,307.5z M239.5,319.5
		c56,6.7,107,26.2,153,58.5c50.8,39.1,76.5,90.9,77,155.5c-1.1,37.8-8,74.4-20.5,110c-4.5,11.7-11.9,14-22,7
		c-9.1-16-14-33.1-14.5-51.5c5.4-41.1,2.5-81.6-8.5-121.5c-10.4-3.9-14.4-0.2-12,11c6.8,31.7,9.4,63.7,8,96c-1.4,3.5-3.9,5-7.5,4.5
		c-15.9-12.4-31.5-25.1-47-38c-23.8-22-29-47.9-15.5-77.5c2.2-6.1,5.2-11.8,9-17c1.9-5.5,0.1-9-5.5-10.5c-4-0.4-7.2,1.1-9.5,4.5
		c-6.3,13.5-12.2,27.1-17.5,41c-4-5.3-7.5-11-10.5-17c-6.6-15.6-12.9-31.2-19-47c-4.2-3.8-8.5-3.8-13,0c-0.5,1.5-1,3-1.5,4.5
		c15.8,50.7,41.1,95.7,76,135c-28,1.3-51.3-8.3-70-29c-8.6-2.1-12.1,1.4-10.5,10.5c8.8,11.4,20,19.9,33.5,25.5
		c7.1,2.9,14.5,5.3,22,7c39.8-1.2,70,15,90.5,48.5c2.2,4.5,3.9,9.1,5,14c1.9,6.6-0.4,10.2-7,11c-49.1-3.9-93.3-20.4-132.5-49.5
		c-40.5-35.4-60.5-80.3-60-134.5c-0.1-13.8,1-27.4,3.5-41c5.1-21.7,10.5-43.4,16-65c1.1-10.6,1.8-21.3,2-32
		C231.7,326.7,234.5,322.3,239.5,319.5z M369.5,322.5c34.1-1.3,66.1,6.2,96,22.5c5,3.5,5.1,7.3,0.5,11.5
		c-6.9,6.9-14.4,13.1-22.5,18.5c-3.4,3-6.4,6.4-9,10c-2.8,2.6-5.8,2.9-9,1c-25.9-22.9-54.2-42.2-85-58
		C350.2,325.5,359.8,323.7,369.5,322.5z"/>
</g>
<g>
	<path class="st1" d="M445.5,224.5c51.4-3.7,91.9,15.3,121.5,57c12.1,11.6,26.6,16.4,43.5,14.5c12.3,3.6,18.3,12,18,25
		c-1,5.8-1.2,11.6-0.5,17.5c11.7,27.4,20.4,55.7,26,85c9.5,84-19,151.8-85.5,203.5c-53,35.9-111.3,49.2-175,40
		c-35-4.7-68.6-14-101-28c-34.2-16.8-59.7-42.3-76.5-76.5c-23.3-47.4-28.7-96.7-16-148c5.6-17.8,10.6-35.8,15-54c2-12.9,3-25.9,3-39
		c22.4-26.4,47.9-49.2,76.5-68.5c37.6-24.5,78.6-33,123-25.5C427,226.8,436.3,225.8,445.5,224.5z M374.5,240.5
		c-10.6,1.6-21.3,3.8-32,6.5c-32.8,9.9-59.5,28.4-80,55.5c0.5,1.2,1.2,2.4,2,3.5c14.2,5.3,28.8,8.1,44,8.5c17.3-2.4,34.7-4.9,52-7.5
		c43.1-2.3,83.4,7.2,121,28.5c0.3-0.3,0.7-0.7,1-1c-11.7-37.9-33.4-68.7-65-92.5C403.2,240.6,388.9,240.1,374.5,240.5z M448.5,240.5
		c-0.8,0.8-1.8,1.3-3,1.5c9.2,11.8,18.3,23.7,27.5,35.5c11.4,14.9,19.1,31.5,23,50c1.1,4,3.6,5.5,7.5,4.5c16.8-9.3,33.8-18.3,51-27
		c3.6-2.3,4.8-5.4,3.5-9.5c-2.6-4.9-5.6-9.6-9-14C522.3,251.5,488.8,237.9,448.5,240.5z M590.5,307.5c-54.9,19.4-103.4,49-145.5,89
		c-3.3,4-3.3,8,0,12c21.6,29.1,33.9,61.7,37,98c2.2,46.7-3.7,92.4-17.5,137c0,3.5,1.6,5.6,5,6.5c7.8,1.1,14.8-0.9,21-6
		c10.1-10.3,18.6-21.8,25.5-34.5c17.8-34.7,29.5-71.3,35-110c3-22.8-4.1-41.6-21.5-56.5c-10-8-20.3-15.5-31-22.5
		c-0.7-1.3-1.3-2.7-2-4c2.8-7.7,7.8-9.5,15-5.5c13.5,9.5,27,19,40.5,28.5c1-5.1,1.5-10.3,1.5-15.5c-1-12.9-2.2-25.7-3.5-38.5
		c3.3-5.3,7.6-6.3,13-3c2,6.9,3.3,13.9,4,21c3,40.3,1.5,80.5-4.5,120.5c0.3,0.8,0.7,1.7,1,2.5c21.7-17.9,35.9-40.6,42.5-68
		c1.5-1.7,3.3-2.7,5.5-3c7.6,1.2,10.1,5.5,7.5,13c-10.2,35.5-30.9,63.1-62,83c-8.5,26.3-18.7,52-30.5,77
		c27.6-10.3,51.4-26.6,71.5-49c37.8-47.3,51.1-101,40-161c-5.9-26.9-14.5-52.9-26-78c-0.8-8.1-2.1-16.1-4-24
		C604.5,309.3,598.7,306.3,590.5,307.5z M239.5,319.5c-5,2.8-7.8,7.2-8.5,13c-0.2,10.7-0.9,21.4-2,32c-5.5,21.6-10.9,43.3-16,65
		c-2.5,13.6-3.6,27.2-3.5,41c-0.5,54.2,19.5,99.1,60,134.5c39.2,29.1,83.4,45.6,132.5,49.5c6.6-0.8,8.9-4.4,7-11
		c-1.1-4.9-2.8-9.5-5-14c-20.5-33.5-50.7-49.7-90.5-48.5c-7.5-1.7-14.9-4.1-22-7c-13.5-5.6-24.7-14.1-33.5-25.5
		c-1.6-9.1,1.9-12.6,10.5-10.5c18.7,20.7,42,30.3,70,29c-34.9-39.3-60.2-84.3-76-135c0.5-1.5,1-3,1.5-4.5c4.5-3.8,8.8-3.8,13,0
		c6.1,15.8,12.4,31.4,19,47c3,6,6.5,11.7,10.5,17c5.3-13.9,11.2-27.5,17.5-41c2.3-3.4,5.5-4.9,9.5-4.5c5.6,1.5,7.4,5,5.5,10.5
		c-3.8,5.2-6.8,10.9-9,17c-13.5,29.6-8.3,55.5,15.5,77.5c15.5,12.9,31.1,25.6,47,38c3.6,0.5,6.1-1,7.5-4.5c1.4-32.3-1.2-64.3-8-96
		c-2.4-11.2,1.6-14.9,12-11c11,39.9,13.9,80.4,8.5,121.5c0.5,18.4,5.4,35.5,14.5,51.5c10.1,7,17.5,4.7,22-7
		c12.5-35.6,19.4-72.2,20.5-110c-0.5-64.6-26.2-116.4-77-155.5C346.5,345.7,295.5,326.2,239.5,319.5z M369.5,322.5
		c-9.7,1.2-19.3,3-29,5.5c30.8,15.8,59.1,35.1,85,58c3.2,1.9,6.2,1.6,9-1c2.6-3.6,5.6-7,9-10c8.1-5.4,15.6-11.6,22.5-18.5
		c4.6-4.2,4.5-8-0.5-11.5C435.6,328.7,403.6,321.2,369.5,322.5z"/>
</g>
</svg>
