<?xml version="1.0" encoding="utf-8"?>
<!-- Generator: Adobe Illustrator 28.2.0, SVG Export Plug-In . SVG Version: 6.00 Build 0)  -->
<svg version="1.1" id="Layer_1" xmlns="http://www.w3.org/2000/svg" xmlns:xlink="http://www.w3.org/1999/xlink" x="0px" y="0px"
	 viewBox="0 0 840 1133" style="enable-background:new 0 0 840 1133;" xml:space="preserve">
<style type="text/css">
	.st0{opacity:0.877;fill-rule:evenodd;clip-rule:evenodd;fill:#21437D;enable-background:new    ;}
	.st1{opacity:0.96;fill-rule:evenodd;clip-rule:evenodd;fill:#FEFFFE;enable-background:new    ;}
	.st2{opacity:0.938;fill-rule:evenodd;clip-rule:evenodd;fill:#FEFFFE;enable-background:new    ;}
	.st3{opacity:0.912;fill-rule:evenodd;clip-rule:evenodd;fill:#FEFFFE;enable-background:new    ;}
	.st4{opacity:0.913;fill-rule:evenodd;clip-rule:evenodd;fill:#FEFFFE;enable-background:new    ;}
	.st5{opacity:0.897;fill-rule:evenodd;clip-rule:evenodd;fill:#FEFFFE;enable-background:new    ;}
</style>
<g>
	<path class="st0" d="M598.5,318.5c11,2.3,22,4.4,33,6.5c-11.4,13.7-22.3,27.9-32.5,42.5c-2.6,8.6,0.6,13.9,9.5,16
		c3.3-1,6.3-2.5,9-4.5c13.3-16.3,27-32.3,41-48c2-0.7,4-0.7,6,0c6.7,7.3,12.1,15.5,16,24.5c-1.3,4.8-3.9,8.6-8,11.5
		c-24.1,17.5-47.9,35.3-71.5,53.5c-1.8,2.4-2.9,5-3.5,8c2.7,10.7,9,13.9,19,9.5c18-14,36.4-27.5,55-40.5c3.5,0.7,6,2.7,7.5,6
		c4,6,5,12.3,3,19c-1.2,2.5-3,4.3-5.5,5.5c-21.5,11.3-43.2,22.3-65,33c-6.6,2.8-13.2,5.3-20,7.5c-4.1-0.4-7.8-1.9-11-4.5
		c-17.4-13.8-28.7-31.4-34-53c0.7-3.6,1.9-7.1,3.5-10.5c12-24,24-48,36-72C588.9,323.4,593.1,320.1,598.5,318.5z M496.5,416.5
		c10.6,1.2,19.1,6.2,25.5,15c12.6,15.6,25.6,31,39,46c7.2,8.4,12.9,17.7,17,28c2.2,7.9,1.6,15.6-2,23c-2.6,4.9-5.6,9.6-9,14
		c-15.7,16.7-32.9,31.5-51.5,44.5c-36.3,21.8-73,43.2-110,64c-4,1-7.7,0.4-11-2c-3.2-3.6-6.1-7.4-8.5-11.5c-3.5-3.5-7-7-10.5-10.5
		c-6.7-3-12.2-1.5-16.5,4.5c-1.1,5.1-0.1,9.8,3,14c5.7,4.8,9.5,10.8,11.5,18c-0.9,4.4-3.2,7.9-7,10.5c-36.2,16.6-72.5,32.9-109,49
		c-8.4,4.2-15.9,3.1-22.5-3.5c-2.6-3.5-2.9-7.2-1-11c7-16.9,16.2-32.4,27.5-46.5c2.3-2,4.7-2,7,0c4.7,5,9.3,10,14,15
		c9.1,3,14.8-0.2,17-9.5c-0.4-1.7-0.9-3.4-1.5-5c-3-4.6-6.3-9-10-13c-5.8-8.8-6.5-17.8-2-27c17.1-23.7,34.9-46.9,53.5-69.5
		c6.3-6,13.3-7,21-3c7.4,7.4,14.1,15.4,20,24c8.3,5.1,15.1,3.6,20.5-4.5c0.7-2.7,0.7-5.3,0-8c-6.8-6.1-13.4-12.4-20-19
		c-11.5-14.3-11.1-28.3,1-42c4.7-5,9.7-9.7,15-14c7.8-10.4,16.3-20.3,25.5-29.5c11.6-10.3,22.1-9.1,31.5,3.5c3.2,4.3,5.8,9,8,14
		c5,9,12.5,12.5,22.5,10.5c6.9-3.3,9-8.5,6.5-15.5c-8.7-7-16.4-15-23-24c-5.8-9.4-4.3-17.2,4.5-23.5
		C480.4,419.2,488.4,417.4,496.5,416.5z"/>
</g>
<g>
	<path class="st1" d="M603.5,294.5c15,0.4,29.7,2.9,44,7.5c8.1,0.2,16.1,1.2,24,3c6.3,2,11.1,5.8,14.5,11.5
		c5.6,11.9,11.6,23.6,18,35c3.2,7.3,3.2,14.7,0,22c-1.7,3.6-3.5,7.1-5.5,10.5c3.2,7.7,6.1,15.5,8.5,23.5c2.7,12.4,0.1,23.4-8,33
		c-11.7,9.6-24.9,16.8-39.5,21.5c-15.8,7.7-31.5,15.7-47,24c-3.6,2.9-6.4,6.4-8.5,10.5c0.1,36.6-14.7,65.5-44.5,86.5
		c-74.1,51.7-152.1,97.4-234,137c-22,10.4-44.7,19-68,26c-40.1,5-54.2-11.8-42.5-50.5c8.1-18.3,17.8-35.6,29-52
		c51.9-77.8,111-149.9,177.5-216.5c22.8-20.7,49.7-32.2,80.5-34.5c5.2,0.7,10.4,1.7,15.5,3c6.5-0.7,11.4-4,14.5-10
		c7.4-13.5,13.8-27.5,19-42c6-16.1,15.5-29.6,28.5-40.5C587,298.4,595,295.6,603.5,294.5z M598.5,318.5c-5.4,1.6-9.6,4.9-12.5,10
		c-12,24-24,48-36,72c-1.6,3.4-2.8,6.9-3.5,10.5c5.3,21.6,16.6,39.2,34,53c3.2,2.6,6.9,4.1,11,4.5c6.8-2.2,13.4-4.7,20-7.5
		c21.8-10.7,43.5-21.7,65-33c2.5-1.2,4.3-3,5.5-5.5c2-6.7,1-13-3-19c-1.5-3.3-4-5.3-7.5-6c-18.6,13-37,26.5-55,40.5
		c-10,4.4-16.3,1.2-19-9.5c0.6-3,1.7-5.6,3.5-8c23.6-18.2,47.4-36,71.5-53.5c4.1-2.9,6.7-6.7,8-11.5c-3.9-9-9.3-17.2-16-24.5
		c-2-0.7-4-0.7-6,0c-14,15.7-27.7,31.7-41,48c-2.7,2-5.7,3.5-9,4.5c-8.9-2.1-12.1-7.4-9.5-16c10.2-14.6,21.1-28.8,32.5-42.5
		C620.5,322.9,609.5,320.8,598.5,318.5z M496.5,416.5c-8.1,0.9-16.1,2.7-24,5.5c-8.8,6.3-10.3,14.1-4.5,23.5c6.6,9,14.3,17,23,24
		c2.5,7,0.4,12.2-6.5,15.5c-10,2-17.5-1.5-22.5-10.5c-2.2-5-4.8-9.7-8-14c-9.4-12.6-19.9-13.8-31.5-3.5
		c-9.2,9.2-17.7,19.1-25.5,29.5c-5.3,4.3-10.3,9-15,14c-12.1,13.7-12.5,27.7-1,42c6.6,6.6,13.2,12.9,20,19c0.7,2.7,0.7,5.3,0,8
		c-5.4,8.1-12.2,9.6-20.5,4.5c-5.9-8.6-12.6-16.6-20-24c-7.7-4-14.7-3-21,3c-18.6,22.6-36.4,45.8-53.5,69.5c-4.5,9.2-3.8,18.2,2,27
		c3.7,4,7,8.4,10,13c0.6,1.6,1.1,3.3,1.5,5c-2.2,9.3-7.9,12.5-17,9.5c-4.7-5-9.3-10-14-15c-2.3-2-4.7-2-7,0
		c-11.3,14.1-20.5,29.6-27.5,46.5c-1.9,3.8-1.6,7.5,1,11c6.6,6.6,14.1,7.7,22.5,3.5c36.5-16.1,72.8-32.4,109-49
		c3.8-2.6,6.1-6.1,7-10.5c-2-7.2-5.8-13.2-11.5-18c-3.1-4.2-4.1-8.9-3-14c4.3-6,9.8-7.5,16.5-4.5c3.5,3.5,7,7,10.5,10.5
		c2.4,4.1,5.3,7.9,8.5,11.5c3.3,2.4,7,3,11,2c37-20.8,73.7-42.2,110-64c18.6-13,35.8-27.8,51.5-44.5c3.4-4.4,6.4-9.1,9-14
		c3.6-7.4,4.2-15.1,2-23c-4.1-10.3-9.8-19.6-17-28c-13.4-15-26.4-30.4-39-46C515.6,422.7,507.1,417.7,496.5,416.5z"/>
</g>
<g>
	<path class="st2" d="M456.5,533.5c1.4-0.2,2.7,0,4,0.5c16.6,13.4,31.3,28.6,44,45.5c-4.1,7.2-10.1,9.4-18,6.5
		c-16.2-7.9-28.1-20.1-35.5-36.5C449.6,542.9,451.4,537.6,456.5,533.5z"/>
</g>
<g>
	<path class="st3" d="M305.5,891.5c9.4-0.4,18.7,0.1,28,1.5c10,5,13.2,12.8,9.5,23.5c-2.4,3.9-5.5,6.9-9.5,9c3.1,1.9,5.2,4.6,6.5,8
		c2,7.7,4.2,15.4,6.5,23c-3.3,1-6.6,1.3-10,1c-1.6-8.6-4.1-17-7.5-25c-5.3-3.5-11.1-4.8-17.5-4c0,9.7,0,19.3,0,29c-3,0-6,0-9,0
		c0-21.7,0-43.3,0-65C303.8,892.7,304.8,892.4,305.5,891.5z M312.5,898.5c-1,7.6-1.3,15.2-1,23c5.8,0.4,11.4-0.1,17-1.5
		c8.2-5.6,8.9-12,2-19C324.7,898.8,318.7,897.9,312.5,898.5z"/>
</g>
<g>
	<path class="st4" d="M472.5,895.5c1,0,2,0,3,0c0,4.7,0,9.3,0,14c4,0,8,0,12,0c0,2.3,0,4.7,0,7c-4,0-8,0-12,0c-0.2,10,0,20,0.5,30
		c2.6,4.6,6.4,6.1,11.5,4.5c-0.1,2-0.3,4.1-0.5,6.5c-5.2,1.4-10.4,1.3-15.5-0.5c-2.3-1.6-3.8-3.8-4.5-6.5c-0.5-11.3-0.7-22.7-0.5-34
		c-2.7,0-5.3,0-8,0c0-2.3,0-4.7,0-7c2.7,0,5.3,0,8,0c-0.3-4.1,0-8.1,1-12C469.3,897,471,896.3,472.5,895.5z"/>
</g>
<g>
	<path class="st5" d="M369.5,908.5c23.3-1.2,33.1,9.8,29.5,33c-5.1,13.6-14.9,19.1-29.5,16.5c-8.2-2.6-13.4-8.1-15.5-16.5
		C350.7,926.2,355.8,915.2,369.5,908.5z M372.5,915.5c-7.7,5.2-10.9,12.5-9.5,22c1.7,9.4,7.2,13.9,16.5,13.5
		c8.7-4.5,12.2-11.7,10.5-21.5C388.7,919.1,382.9,914.4,372.5,915.5z"/>
</g>
<g>
	<path class="st5" d="M423.5,908.5c23.3-1.2,33.1,9.8,29.5,33c-5.1,13.6-14.9,19.1-29.5,16.5c-8.2-2.6-13.4-8.1-15.5-16.5
		C404.7,926.2,409.8,915.2,423.5,908.5z M426.5,915.5c-7.7,5.2-10.9,12.5-9.5,22c1.7,9.4,7.2,13.9,16.5,13.5
		c8.7-4.5,12.2-11.7,10.5-21.5C442.7,919.1,436.9,914.4,426.5,915.5z"/>
</g>
</svg>
