<?xml version="1.0" encoding="utf-8"?>
<!-- Generator: Adobe Illustrator 28.2.0, SVG Export Plug-In . SVG Version: 6.00 Build 0)  -->
<svg version="1.1" id="Layer_1" xmlns="http://www.w3.org/2000/svg" xmlns:xlink="http://www.w3.org/1999/xlink" x="0px" y="0px"
	 viewBox="0 0 840 1133" style="enable-background:new 0 0 840 1133;" xml:space="preserve">
<style type="text/css">
	.st0{opacity:0.989;fill-rule:evenodd;clip-rule:evenodd;fill:#21437D;enable-background:new    ;}
</style>
<g>
</g>
<g>
	<path class="st0" d="M454.5,378.5c27.5-27.3,55.2-54.5,83-81.5c48.7-32.7,97.3-32.7,146,0c7.1,6.1,14,12.6,20.5,19.5
		c0.7,1,0.7,2,0,3c-30.5,30.5-61,61-91.5,91.5c-39,32.2-83,41.4-132,27.5c31.1,37.3,40.6,79.7,28.5,127c-14.3,41.5-29,82.9-44,124
		c-57.9-17.9-89-57-93.5-117.5c0.6-9.2,1.7-18.4,3.5-27.5c13.4-39.4,26.7-78.8,40-118c-30.5,45.5-73.4,66.4-128.5,62.5
		c-7.1-0.8-14.1-2.1-21-4c-42.1-14.5-84.1-29.4-126-44.5c20-63.5,63.3-94.3,130-92.5c7.1,0.7,14.1,2,21,4
		c42.4,14.9,84.7,29.6,127,44c-29.5-29.5-59-59-88.5-88.5c-32.1-38.7-39.1-81.7-21-129c8.2-18.1,20.1-33.4,35.5-46
		c32,31.5,63.8,63.2,95.5,95C474.5,274.6,479.6,324.9,454.5,378.5z"/>
</g>
</svg>
