<?xml version="1.0" encoding="utf-8"?>
<!-- Generator: Adobe Illustrator 28.2.0, SVG Export Plug-In . SVG Version: 6.00 Build 0)  -->
<svg version="1.1" id="Layer_1" xmlns="http://www.w3.org/2000/svg" xmlns:xlink="http://www.w3.org/1999/xlink" x="0px" y="0px"
	 viewBox="0 0 840 1133" style="enable-background:new 0 0 840 1133;" xml:space="preserve">
<style type="text/css">
	.st0{opacity:0.877;fill-rule:evenodd;clip-rule:evenodd;fill:#21437D;enable-background:new    ;}
	.st1{opacity:0.885;fill-rule:evenodd;clip-rule:evenodd;fill:#FEFFFE;enable-background:new    ;}
	.st2{opacity:0.953;fill-rule:evenodd;clip-rule:evenodd;fill:#FEFFFE;enable-background:new    ;}
	.st3{opacity:0.915;fill-rule:evenodd;clip-rule:evenodd;fill:#FEFFFE;enable-background:new    ;}
</style>
<g>
	<path class="st0" d="M436.5,222.5c13.2,23.9,18.7,49.6,16.5,77c-1.3,8.8-3.9,17.1-8,25C433.9,291.1,431.1,257.1,436.5,222.5z
		 M481.5,240.5c0.6,0.1,1.1,0.4,1.5,1c2.6,12.6,1.6,25-3,37c-4.5,13.7-9.9,27-16,40c-10.5,19.1-20.5,38.4-30,58
		c-1.9,5.3-3.5,10.6-5,16c-1.3,11-2.6,22-4,33c-5.1,18.8-9.1,37.8-12,57c-1.2,28.2-2.4,56.3-3.5,84.5c0.8,34.4,2.2,68.7,4,103
		c-0.3,6.4-3.6,10.3-10,11.5c-3-1.1-5.1-3.1-6.5-6c-1.1-3.9-1.8-7.9-2-12c-1.4-59-0.6-118,2.5-177c-0.4-34.5-7.5-67.5-21.5-99
		c-8.8-20.5-19.3-40-31.5-58.5c4.5-0.3,8.5,1.1,12,4c14.7,14.1,25.2,31,31.5,50.5c5.3,15.3,10.3,30.6,15,46
		c16.7-21.8,21.7-46.1,15-73c-11.2-37.3-28.4-71.4-51.5-102.5c6.4-1.2,12.4-0.2,18,3c15,12.2,25.5,27.7,31.5,46.5
		c6.7,20.5,11.2,41.5,13.5,63c7.9-12.4,14.7-25.4,20.5-39C460.6,298.5,471.1,269.5,481.5,240.5z M466.5,321.5
		c15.5-31.3,39.8-52.5,73-63.5c9.5-2.7,18.5-1.7,27,3c-28,16-55.3,33-82,51C478.6,315.4,472.6,318.6,466.5,321.5z M452.5,365.5
		c28.7-33.8,64.7-56,108-66.5c6.3-0.7,12.7-0.7,19,0c4.2,0.8,7.9,2.6,11,5.5C540.9,317.1,494.9,337.5,452.5,365.5z M516.5,368.5
		c16.2-0.9,32.2,0.6,48,4.5c-26.9,7.2-53.9,14.2-81,21c-6.7,2.1-13.4,4.5-20,7c-8.1,3.7-16.1,7.4-24,11
		C458.3,385.6,484,371.1,516.5,368.5z M327.5,387.5c5.4-0.1,9.6,2.3,12.5,7c7.5,11,15.5,21.7,24,32c11,14.6,19.3,30.6,25,48
		c3.3,11.7,3.3,23.4,0,35c-6.8-23.5-15.8-46.2-27-68c-9.9-17.2-22.3-32.5-37-46C324,392.2,324.9,389.6,327.5,387.5z M545.5,405.5
		c1.4,1.4,2.1,3.3,2,5.5c-3.7,19.3-12.8,35.5-27.5,48.5c-0.7,0.7-0.7,1.3,0,2c12-7.9,24.8-14.1,38.5-18.5c8.9-2.8,17.2-1.8,25,3
		c-5,3.5-10.3,6.5-16,9c-22.3,8.7-43.3,19.7-63,33c-4.1,3-7.8,6.5-11,10.5c0.5,0.3,1,0.7,1.5,1c20.2-7.8,41-10.6,62.5-8.5
		c19.1,3.1,34.8,12.1,47,27c-12.1-3.1-24.5-5.8-37-8c-30.7-4.4-60.7-1.4-90,9c-16.5,12.2-27.2,28.4-32,48.5
		c11.3-3.3,22.6-6.4,34-9.5c15-4.1,30-4.4,45-1c5.2,2.2,9.5,5.5,13,10c-6.4,3.9-13.4,6.3-21,7c-16.7,1-33.3,2-50,3
		c-20.8,1.9-36,12-45.5,30.5c-1-1.1-1.5-2.4-1.5-4c0.7-6.5,2.2-12.9,4.5-19c6.6-12.9,12.9-25.9,19-39c24-26.6,32.3-57.6,25-93
		c-1.8-11.1-4.2-22.1-7-33c-1.9-5.5-0.2-9.2,5-11c1.3,0.3,2.3,0.9,3,2c11.1,24.7,14.4,50.3,10,77c8.8-4.9,16.4-11.2,23-19
		c8.4-13.4,16.4-27.1,24-41C532,419.6,538.5,412.3,545.5,405.5z M446.5,421.5c1.2-0.2,2.2,0.1,3,1c17.2,30.8,18.4,62.1,3.5,94
		c-10.3,20.6-21.7,40.6-34,60c-2.7-45.2,0.9-89.9,11-134C433.6,433.9,439.1,426.9,446.5,421.5z M380.5,560.5
		c-21.5-19.7-40.7-41.4-57.5-65c-8.9-14.5-13.6-30.1-14-47c12.9,11.9,23.9,25.2,33,40C356.1,511.8,369,535.8,380.5,560.5z
		 M330.5,567.5c24.9,4.6,43.1,18.2,54.5,41c2.8,5.8,3.6,11.8,2.5,18c-14.5-13-29.2-25.9-44-38.5c-7.7-5.8-15.7-11.2-24-16
		C322.9,569.5,326.5,568,330.5,567.5z"/>
</g>
<g>
	<path class="st1" d="M458.5,344.5c16.8-11.6,33.4-23.4,50-35.5c19.6-12.3,40.9-19.1,64-20.5c5.1,0,10.1,0.5,15,1.5
		c7.2,2.1,10.9,6.9,11,14.5c0,3.2-1,6-3,8.5c-19.4,6-38.8,12.4-58,19c-34.2,12.8-65.4,30.7-93.5,53.5c-1.9,2.4-2.6,5.1-2,8
		c18.3-14.6,39.2-23.7,62.5-27.5c20.9-3.7,41.9-4.7,63-3c12.9,0.4,17.3,6.6,13,18.5c-1.2,1.1-2.5,1.9-4,2.5c-21.5,1.2-42.8,3.6-64,7
		c-9.6,1.9-18.9,4.5-28,8c-3.7,2.5-5.4,6-5,10.5c3.4,20.9,5.9,41.9,7.5,63c6.8-6.8,12.8-14.1,18-22c9.3-16.7,18.7-33.3,28-50
		c7.6-9,15.6-9.3,24-1c1,2,1.5,4.2,1.5,6.5c-1.6,10.9-5.6,20.9-12,30c6-0.2,12-0.9,18-2c7.3-0.7,14.7-0.7,22,0
		c7.2,3.7,9.7,9.5,7.5,17.5c-1.2,2.5-3,4.3-5.5,5.5c-21.9,5.4-42.5,13.7-62,25c27.5-1.5,52.5,5.5,75,21c5.7,5.2,10.1,11.4,13,18.5
		c-0.7,5.6-3.9,8.6-9.5,9c-12.7-5-25.6-9.8-38.5-14.5c-29.1-6.8-57.5-4.2-85,8c-7.8,3.8-13.7,9.7-17.5,17.5
		c-2.7,5.6-5.5,11.1-8.5,16.5c14.4-3.9,29-6.9,44-9c12.6-1.2,24.9,0.1,37,4c11.7,4.9,14.9,13,9.5,24.5c-1.4,1-2.9,1.8-4.5,2.5
		c-23.4-1.3-46.7-0.6-70,2c-25.8,3.1-40.3,17.6-43.5,43.5c-3.3,17.9-5.3,35.9-6,54c-5.3,9.9-13.4,13.4-24.5,10.5
		c-4.2-1.2-7.4-3.7-9.5-7.5c-1.8-11.6-3.4-23.3-5-35c-5.3-18.5-15.5-33.6-30.5-45.5c-11.2-8.1-22.8-15.4-35-22c-4.5-7.4-3.5-14,3-20
		c4.5-1.5,9.2-1.9,14-1c7.9,2.6,15.2,6.3,22,11c9.4,7.4,18.3,15.6,26.5,24.5c0.9-5.6-0.4-10.6-4-15c-26.8-29.3-50.5-61-71-95
		c-8.4-14.2-12.1-29.6-11-46c5.2-6.1,11-6.6,17.5-1.5c2.7,3.3,5.5,6.4,8.5,9.5c12.4,21.8,25.1,43.5,38,65c7.4,12,15.7,23.4,25,34
		c1.7-8.5,1-16.8-2-25c-8.1-25.1-18.1-49.5-30-73c-9.1-15.7-20.4-29.7-34-42c-11.1-14.7-7.8-24.4,10-29c4.3,0.3,8.1,1.8,11.5,4.5
		c4.8,5.1,8.9,10.6,12.5,16.5c10.3,18,20.7,36,31,54c-4.7-40.1-19.4-76.1-44-108c-3.3-3.3-6.7-6.7-10-10c-2-12.6,3.5-18.1,16.5-16.5
		c13,7,23.5,16.9,31.5,29.5c11.4,20.4,19.4,42.1,24,65c0.6,2,1.6,2.3,3,1c6.6-11,10.1-23,10.5-36c-3.2-33.5-15.1-63.5-35.5-90
		c-7.7-8-15-16.4-22-25c-3.2-7.2-1.4-12.7,5.5-16.5c3.8-0.7,7.4-0.4,11,1c33.4,20.5,52.2,50.4,56.5,89.5c1.1,3.1,2.4,6.1,4,9
		c1.1-2.7,1.6-5.5,1.5-8.5c-2.8-28.6-6.6-57.1-11.5-85.5c-2-12.3-2-24.7,0-37c3.1-8.4,8.6-10.2,16.5-5.5c3.8,5.7,6.6,11.9,8.5,18.5
		c4.1,17.5,7.1,35.2,9,53c2.1-2.6,3.5-5.6,4-9c0.9-7.7,1.9-15.4,3-23c2.5-5.8,6.3-10.3,11.5-13.5c7.2-1.5,12.4,1,15.5,7.5
		c0.8,12,0,23.8-2.5,35.5c12.8-7.1,25.5-14.8,38-23c13-7.2,26.3-8.2,40-3c5.6,7,5.3,13.7-1,20c-18.2,8.9-36.6,17.5-55,26
		c-19.3,11.1-36.4,24.9-51.5,41.5C460.6,340.4,459.4,342.4,458.5,344.5z M436.5,222.5c-5.4,34.6-2.6,68.6,8.5,102
		c4.1-7.9,6.7-16.2,8-25C455.2,272.1,449.7,246.4,436.5,222.5z M481.5,240.5c-10.4,29-20.9,58-31.5,87c-5.8,13.6-12.6,26.6-20.5,39
		c-2.3-21.5-6.8-42.5-13.5-63c-6-18.8-16.5-34.3-31.5-46.5c-5.6-3.2-11.6-4.2-18-3c23.1,31.1,40.3,65.2,51.5,102.5
		c6.7,26.9,1.7,51.2-15,73c-4.7-15.4-9.7-30.7-15-46c-6.3-19.5-16.8-36.4-31.5-50.5c-3.5-2.9-7.5-4.3-12-4
		c12.2,18.5,22.7,38,31.5,58.5c14,31.5,21.1,64.5,21.5,99c-3.1,59-3.9,118-2.5,177c0.2,4.1,0.9,8.1,2,12c1.4,2.9,3.5,4.9,6.5,6
		c6.4-1.2,9.7-5.1,10-11.5c-1.8-34.3-3.2-68.6-4-103c1.1-28.2,2.3-56.3,3.5-84.5c2.9-19.2,6.9-38.2,12-57c1.4-11,2.7-22,4-33
		c1.5-5.4,3.1-10.7,5-16c9.5-19.6,19.5-38.9,30-58c6.1-13,11.5-26.3,16-40c4.6-12,5.6-24.4,3-37
		C482.6,240.9,482.1,240.6,481.5,240.5z M466.5,321.5c6.1-2.9,12.1-6.1,18-9.5c26.7-18,54-35,82-51c-8.5-4.7-17.5-5.7-27-3
		C506.3,269,482,290.2,466.5,321.5z M452.5,365.5c42.4-28,88.4-48.4,138-61c-3.1-2.9-6.8-4.7-11-5.5c-6.3-0.7-12.7-0.7-19,0
		C517.2,309.5,481.2,331.7,452.5,365.5z M516.5,368.5c-32.5,2.6-58.2,17.1-77,43.5c7.9-3.6,15.9-7.3,24-11c6.6-2.5,13.3-4.9,20-7
		c27.1-6.8,54.1-13.8,81-21C548.7,369.1,532.7,367.6,516.5,368.5z M327.5,387.5c-2.6,2.1-3.5,4.7-2.5,8c14.7,13.5,27.1,28.8,37,46
		c11.2,21.8,20.2,44.5,27,68c3.3-11.6,3.3-23.3,0-35c-5.7-17.4-14-33.4-25-48c-8.5-10.3-16.5-21-24-32
		C337.1,389.8,332.9,387.4,327.5,387.5z M545.5,405.5c-7,6.8-13.5,14.1-19.5,22c-7.6,13.9-15.6,27.6-24,41c-6.6,7.8-14.2,14.1-23,19
		c4.4-26.7,1.1-52.3-10-77c-0.7-1.1-1.7-1.7-3-2c-5.2,1.8-6.9,5.5-5,11c2.8,10.9,5.2,21.9,7,33c7.3,35.4-1,66.4-25,93
		c-6.1,13.1-12.4,26.1-19,39c-2.3,6.1-3.8,12.5-4.5,19c0,1.6,0.5,2.9,1.5,4c9.5-18.5,24.7-28.6,45.5-30.5c16.7-1,33.3-2,50-3
		c7.6-0.7,14.6-3.1,21-7c-3.5-4.5-7.8-7.8-13-10c-15-3.4-30-3.1-45,1c-11.4,3.1-22.7,6.2-34,9.5c4.8-20.1,15.5-36.3,32-48.5
		c29.3-10.4,59.3-13.4,90-9c12.5,2.2,24.9,4.9,37,8c-12.2-14.9-27.9-23.9-47-27c-21.5-2.1-42.3,0.7-62.5,8.5c-0.5-0.3-1-0.7-1.5-1
		c3.2-4,6.9-7.5,11-10.5c19.7-13.3,40.7-24.3,63-33c5.7-2.5,11-5.5,16-9c-7.8-4.8-16.1-5.8-25-3c-13.7,4.4-26.5,10.6-38.5,18.5
		c-0.7-0.7-0.7-1.3,0-2c14.7-13,23.8-29.2,27.5-48.5C547.6,408.8,546.9,406.9,545.5,405.5z M446.5,421.5c-7.4,5.4-12.9,12.4-16.5,21
		c-10.1,44.1-13.7,88.8-11,134c12.3-19.4,23.7-39.4,34-60c14.9-31.9,13.7-63.2-3.5-94C448.7,421.6,447.7,421.3,446.5,421.5z
		 M380.5,560.5c-11.5-24.7-24.4-48.7-38.5-72c-9.1-14.8-20.1-28.1-33-40c0.4,16.9,5.1,32.5,14,47C339.8,519.1,359,540.8,380.5,560.5
		z M330.5,567.5c-4,0.5-7.6,2-11,4.5c8.3,4.8,16.3,10.2,24,16c14.8,12.6,29.5,25.5,44,38.5c1.1-6.2,0.3-12.2-2.5-18
		C373.6,585.7,355.4,572.1,330.5,567.5z"/>
</g>
<g>
	<path class="st2" d="M327.5,891.5c3,0,6,0,9,0c0,9,0,18,0,27c10.7,0,21.3,0,32,0c0-9,0-18,0-27c3,0,6,0,9,0c0,22,0,44,0,66
		c-3,0-6,0-9,0c0-10.3,0-20.7,0-31c-10.7,0-21.3,0-32,0c0,10.3,0,20.7,0,31c-3,0-6,0-9,0C327.5,935.5,327.5,913.5,327.5,891.5z"/>
</g>
<g>
	<path class="st3" d="M457.5,908.5c2.7,0,5.3,0,8,0c0,3,0,6,0,9c-6.5-1.3-11,1-13.5,7c-1.4,10.9-1.9,21.9-1.5,33c-3,0-6,0-9,0
		c0.2-16-0.1-32-1-48c3,0,6,0,9,0c-0.2,2.4,0,4.7,0.5,7C451.7,913,454.2,910.3,457.5,908.5z"/>
</g>
<g>
	<path class="st1" d="M538.5,908.5c4.3-0.2,8.7,0,13,0.5c2.3,0.5,4.3,1.5,6,3c-0.9,2.2-1.9,4.4-3,6.5c-5.6-3.9-11.1-3.9-16.5,0
		c-0.7,2-0.7,4,0,6c5,3.2,10.1,6.1,15.5,8.5c5.2,5.3,6.4,11.5,3.5,18.5c-2.3,3.3-5.5,5.5-9.5,6.5c-5,0.7-10,0.7-15,0
		c-2.3-0.5-4.3-1.5-6-3c0.9-2.2,1.9-4.4,3-6.5c4.7,2.5,9.7,3.4,15,2.5c5-2.1,6.2-5.6,3.5-10.5c-4.6-2.9-9.4-5.4-14.5-7.5
		c-6.3-6.7-6.6-13.7-1-21C534.4,910.5,536.4,909.4,538.5,908.5z"/>
</g>
</svg>
