<?xml version="1.0" encoding="utf-8"?>
<!-- Generator: Adobe Illustrator 28.2.0, SVG Export Plug-In . SVG Version: 6.00 Build 0)  -->
<svg version="1.1" id="Layer_1" xmlns="http://www.w3.org/2000/svg" xmlns:xlink="http://www.w3.org/1999/xlink" x="0px" y="0px"
	 viewBox="0 0 840 1133" style="enable-background:new 0 0 840 1133;" xml:space="preserve">
<style type="text/css">
	.st0{opacity:0.877;fill-rule:evenodd;clip-rule:evenodd;fill:#21437D;enable-background:new    ;}
	.st1{opacity:0.914;fill-rule:evenodd;clip-rule:evenodd;fill:#FEFFFE;enable-background:new    ;}
</style>
<g>
	<path class="st0" d="M468.5,200.5c4.5,1.2,8.3,3.5,11.5,7c29,44.3,36,92,21,143c-7,19.7-18,36.7-33,51c1-44.9,2.9-89.7,5.5-134.5
		c-0.4-9.2-1.1-18.4-2-27.5c-2.3,0-4.7,0-7,0c-2.2,56.7-5,113.4-8.5,170c-45.1-54.2-50.8-112.6-17-175c5.6-9.3,11.6-18.3,18-27
		C460.3,204,464.1,201.7,468.5,200.5z M633.5,294.5c15.9-2.6,24.7,4.1,26.5,20c4.5,59.8-18.3,106-68.5,138.5
		c-17.3,10.5-36,16-56,16.5c26.6-30.7,51.4-62.7,74.5-96c5.4-8.5,10.5-17.2,15.5-26c-0.8-1.5-2.2-2.2-4-2c-2.1,0.2-4.1,0.7-6,1.5
		c-24.1,38.1-51.3,73.9-81.5,107.5c-2.2,2.8-4.2,5.8-6,9c-6.6,3.7-11.3,2-14-5c-4.4-59.1,17.1-106.3,64.5-141.5
		C595.5,306.1,613.9,298.6,633.5,294.5z M424.5,501.5c-33.8-30.9-58.6-67.9-74.5-111c-3-8.8-4.3-17.8-4-27c34.4,8.4,58.4,29.1,72,62
		c8.8,20.5,13.4,41.8,14,64c-7.6-12.9-15.9-25.2-25-37c-6.3-6.6-13.3-12.3-21-17c-0.2,0.5-0.3,1-0.5,1.5c8.8,13.7,18,27.2,27.5,40.5
		C417.7,485.1,421.5,493.1,424.5,501.5z M452.5,440.5c0.7,2,1,4.1,1,6.5c-2.9,40.2-5.5,80.3-8,120.5c-1.7,0-3.3,0-5,0
		C440.1,524.7,444.1,482.4,452.5,440.5z M259.5,454.5c59.8-2.5,105.4,21.4,137,71.5c-16.6-6.6-33.2-13.3-50-20
		c-31.7-11.8-64.4-19.1-98-22c0.3,0.3,0.7,0.7,1,1c33.3,9.7,66.3,20.3,99,32c20.4,7.6,39.8,17.2,58,29c-35.7,6.7-71.1,5-106-5
		c-41.1-13.9-80.4-31.5-118-53c-5.3-4.3-5.3-8.7,0-13C207.1,463.6,232.7,456.8,259.5,454.5z M502.5,489.5
		c-16.3,30.9-31.8,62.2-46.5,94c0.8-12.5,3.8-24.5,9-36C474.8,526.2,487.3,506.9,502.5,489.5z M439.5,585.5
		c12.8,19.7,18.7,41.3,17.5,65C452.6,628.4,446.7,606.8,439.5,585.5z"/>
</g>
<g>
	<path class="st1" d="M466.5,190.5c10.5,1,18.7,6,24.5,15c38.6,63.1,37.9,125.8-2,188c-5.9,7.7-12.2,15-19,22c-2.4,2.5-4.1,5.5-5,9
		c-3.1,36.7-5.7,73.3-8,110c15.6-22.2,30.9-44.5,46-67c-5.3-54.1,10.5-101,47.5-140.5c25.4-24.4,55.8-38.6,91-42.5
		c16.3,0.4,25.4,8.8,27.5,25c6.6,68.7-19.6,120.5-78.5,155.5c-20,9.6-41,15.6-63,18c-7.8,3.8-13.7,9.7-17.5,17.5
		c-18.9,32.5-34.6,66.5-47,102c-0.7,4.3-0.7,8.7,0,13c4.5,11.8,7,23.9,7.5,36.5c-1.5,13.6-8.5,17.6-21,12c-1.9-1.5-3.4-3.4-4.5-5.5
		c-1-28.9-8.7-55.9-23-81c-4.5-7.5-10.7-13.4-18.5-17.5c-54.8,4.4-107.1-5-157-28c-24.6-11.6-48.6-24.3-72-38
		c-7.8-6.1-9-13.2-3.5-21.5c16.2-13.5,34.7-22.3,55.5-26.5c64.9-11.6,119.8,6.6,164.5,54.5c8.4,11.2,16.1,22.8,23,35
		c4.6,5.1,9.6,9.8,15,14c3.9-10.5,2.9-20.5-3-30c-33.8-33.2-61.5-70.8-83-113c-6.4-14.3-9.1-29.3-8-45c0.8-10,6-13.1,15.5-9.5
		c46.9,16.5,75.7,49,86.5,97.5c5.6-12.1,5.9-24.5,1-37c-11.7-18.8-20.7-38.8-27-60c-9.3-42.6-3.3-82.9,18-121
		c6.7-13.2,15.2-25,25.5-35.5C458.3,193.5,462.3,191.6,466.5,190.5z M468.5,200.5c-4.4,1.2-8.2,3.5-11.5,7c-6.4,8.7-12.4,17.7-18,27
		c-33.8,62.4-28.1,120.8,17,175c3.5-56.6,6.3-113.3,8.5-170c2.3,0,4.7,0,7,0c0.9,9.1,1.6,18.3,2,27.5c-2.6,44.8-4.5,89.6-5.5,134.5
		c15-14.3,26-31.3,33-51c15-51,8-98.7-21-143C476.8,204,473,201.7,468.5,200.5z M633.5,294.5c-19.6,4.1-38,11.6-55,22.5
		c-47.4,35.2-68.9,82.4-64.5,141.5c2.7,7,7.4,8.7,14,5c1.8-3.2,3.8-6.2,6-9c30.2-33.6,57.4-69.4,81.5-107.5c1.9-0.8,3.9-1.3,6-1.5
		c1.8-0.2,3.2,0.5,4,2c-5,8.8-10.1,17.5-15.5,26c-23.1,33.3-47.9,65.3-74.5,96c20-0.5,38.7-6,56-16.5c50.2-32.5,73-78.7,68.5-138.5
		C658.2,298.6,649.4,291.9,633.5,294.5z M424.5,501.5c-3-8.4-6.8-16.4-11.5-24c-9.5-13.3-18.7-26.8-27.5-40.5c0.2-0.5,0.3-1,0.5-1.5
		c7.7,4.7,14.7,10.4,21,17c9.1,11.8,17.4,24.1,25,37c-0.6-22.2-5.2-43.5-14-64c-13.6-32.9-37.6-53.6-72-62c-0.3,9.2,1,18.2,4,27
		C365.9,433.6,390.7,470.6,424.5,501.5z M452.5,440.5c-8.4,41.9-12.4,84.2-12,127c1.7,0,3.3,0,5,0c2.5-40.2,5.1-80.3,8-120.5
		C453.5,444.6,453.2,442.5,452.5,440.5z M259.5,454.5c-26.8,2.3-52.4,9.1-77,20.5c-5.3,4.3-5.3,8.7,0,13c37.6,21.5,76.9,39.1,118,53
		c34.9,10,70.3,11.7,106,5c-18.2-11.8-37.6-21.4-58-29c-32.7-11.7-65.7-22.3-99-32c-0.3-0.3-0.7-0.7-1-1c33.6,2.9,66.3,10.2,98,22
		c16.8,6.7,33.4,13.4,50,20C364.9,475.9,319.3,452,259.5,454.5z M502.5,489.5c-15.2,17.4-27.7,36.7-37.5,58c-5.2,11.5-8.2,23.5-9,36
		C470.7,551.7,486.2,520.4,502.5,489.5z M439.5,585.5c7.2,21.3,13.1,42.9,17.5,65C458.2,626.8,452.3,605.2,439.5,585.5z"/>
</g>
<g>
</g>
</svg>
