<?xml version="1.0" encoding="utf-8"?>
<!-- Generator: Adobe Illustrator 28.2.0, SVG Export Plug-In . SVG Version: 6.00 Build 0)  -->
<svg version="1.1" id="Layer_1" xmlns="http://www.w3.org/2000/svg" xmlns:xlink="http://www.w3.org/1999/xlink" x="0px" y="0px"
	 viewBox="0 0 840 1133" style="enable-background:new 0 0 840 1133;" xml:space="preserve">
<style type="text/css">
	.st0{opacity:0.877;fill-rule:evenodd;clip-rule:evenodd;fill:#FFFFFF;enable-background:new    ;}
	.st1{opacity:0.944;fill-rule:evenodd;clip-rule:evenodd;fill:#21437D;enable-background:new    ;}
</style>
<g>
	<path class="st0" d="M-0.5-0.5c280,0,560,0,840,0c0,377.7,0,755.3,0,1133c-280,0-560,0-840,0C-0.5,754.8-0.5,377.2-0.5-0.5z
		 M4.5,4.5c276.7,0,553.3,0,830,0c0,374.7,0,749.3,0,1124c-276.7,0-553.3,0-830,0C4.5,753.8,4.5,379.2,4.5,4.5z M450.5,206.5
		c2-0.2,4,0,6,0.5c0.6,0.9,0.9,1.9,1,3c-6.5,23.3-7.3,46.8-2.5,70.5c2.7,12.9,6.4,25.6,11,38c33.5,72.1,46.9,147.8,40,227
		c-4.4,41.8-16,81.5-35,119c-1.8,1.8-4,3-6.5,3.5c-6.7,0.8-13.3,1.1-20,1c-0.6-0.8-1.1-1.6-1.5-2.5c0.9-152.7,2.3-305.3,4-458
		C448.3,207.9,449.5,207.2,450.5,206.5z M431.5,207.5c1.3-0.2,2.5,0.2,3.5,1c-0.9,146.3-1.9,292.7-3,439c-0.3,6.7-0.7,13.3-1,20
		c-1.3,1.5-3,2.1-5,2c-9.6-0.9-19.1-2.4-28.5-4.5C365,599.5,353.2,530.3,362,457.5c4.1-36.1,12.8-71.1,26-105
		c9.9-22.1,20.5-43.7,32-65c7.6-17.9,12.1-36.6,13.5-56c-0.4-7.3-1.4-14.4-3-21.5C430.7,209.1,431.1,208.3,431.5,207.5z
		 M464.5,255.5c4.8,25.9,15.3,49.2,31.5,70c8.3,7.1,16.3,14.5,24,22c24.5,32.7,41.9,69.1,52,109c14.2,65.2,2.9,125.5-34,181
		c-5.8,7-13,12.2-21.5,15.5c-9.8,4-19.8,7.5-30,10.5c-0.9-2-0.7-4,0.5-6c26-58.3,36.3-119.3,31-183c-3.4-42.9-12.4-84.5-27-125
		c-7.2-17.9-14.2-35.9-21-54C466.3,282.4,464.5,269.1,464.5,255.5z M406.5,287.5c-0.5,2.7-1.4,5.4-2.5,8
		c-24.6,41.2-40.9,85.5-49,133c-15.3,80.5-6.1,158,27.5,232.5c-13.9-3.3-27.2-8.3-40-15c-6.5-4.9-12-10.7-16.5-17.5
		c-42.1-82.8-40.4-164.8,5-246c9.4-16.8,20.4-32.4,33-47C380.2,321.1,394.4,305.1,406.5,287.5z M333.5,353.5c1,0.4,1.2,1.1,0.5,2
		c-55.7,84.3-64.1,173-25,266c-54.5-51.4-69.9-112.7-46-184C277.7,402,301.2,374,333.5,353.5z M540.5,354.5
		c60.2,38.8,87.1,94.1,80.5,166c-7.2,43-27.7,78-61.5,105c37.1-73.3,39.2-147.7,6.5-223C558.2,386,549.7,370,540.5,354.5z"/>
</g>
<g>
	<path class="st1" d="M446.5,184.5c9.3-0.2,18.7,0,28,0.5c2.5,0.5,4.7,1.7,6.5,3.5c1.5,14.3,2.5,28.6,3,43c1.6,26.8,9.6,51.5,24,74
		c3.9,4.2,8,8,12.5,11.5C621.8,365.8,660.3,445.3,636,555.5c-24.5,62.7-68.7,104.7-132.5,126c-1.2,1.2-1.2,2.3,0,3.5
		c6.2,3.3,12.7,5.8,19.5,7.5c0.8,2.9,0.6,5.8-0.5,8.5c-13.9,1.2-24.9-3.8-33-15c-4.2,0.7-8.6,1.4-13,2c-1.4,2.5-0.7,4.5,2,6
		c6,4,12.4,7.5,19,10.5c1.7,4.6,0.2,7.6-4.5,9c-12.9-2.9-23-9.7-30.5-20.5c-3.4-2.1-7.1-2.7-11-2c-0.9,0.7-1.5,1.5-2,2.5
		c2.4,11.8,8.9,20.5,19.5,26c1.3,7.1-1.6,9.6-8.5,7.5c-9.2-3.6-15.4-10.1-18.5-19.5c-1.5-4.3-2.8-8.6-4-13c-2.6-2.8-5.7-3.7-9.5-2.5
		c-1.3,0.8-2.2,1.9-2.5,3.5c-0.8,8.8-2.1,17.4-4,26c-0.8,2.4-2.4,3.4-5,3c-4.3,0-6.2-2.2-5.5-6.5c1.3-8.6,2.4-17.1,3.5-25.5
		c-4.1-2.8-8.6-3.6-13.5-2.5c-2.6,7.4-5.7,14.6-9.5,21.5c-3.9,5.4-8.9,9.4-15,12c-5-1-6.7-4-5-9c10-6.3,15.3-15.3,16-27
		c-2.7-2.9-5.5-3.2-8.5-1c-8.4,16.5-21.7,24.8-40,25c-2.1-2.8-2.4-5.8-1-9c13.1-2.3,23.1-9.2,30-20.5
		c-38.6-13.7-71.1-36.2-97.5-67.5c-49.1-66.6-54.8-137-17-211c22.6-36.6,53.5-64.1,92.5-82.5c26.9-21.7,46.1-48.9,57.5-81.5
		c4.3-13.4,5.4-27.1,3.5-41c-0.9-6.4,1.8-10.2,8-11.5C426,186.2,436.3,185.4,446.5,184.5z M450.5,206.5c-1,0.7-2.2,1.4-3.5,2
		c-1.7,152.7-3.1,305.3-4,458c0.4,0.9,0.9,1.8,1.5,2.5c6.7,0.1,13.3-0.2,20-1c2.5-0.5,4.7-1.7,6.5-3.5c19-37.5,30.6-77.2,35-119
		c6.9-79.2-6.5-154.9-40-227c-4.6-12.4-8.3-25.1-11-38c-4.8-23.7-4-47.2,2.5-70.5c-0.1-1.1-0.4-2.1-1-3
		C454.5,206.5,452.5,206.3,450.5,206.5z M431.5,207.5c-0.4,0.8-0.8,1.6-1,2.5c1.6,7.1,2.6,14.2,3,21.5c-1.4,19.4-5.9,38.1-13.5,56
		c-11.5,21.3-22.1,42.9-32,65c-13.2,33.9-21.9,68.9-26,105c-8.8,72.8,3,142,35.5,207.5c9.4,2.1,18.9,3.6,28.5,4.5c2,0.1,3.7-0.5,5-2
		c0.3-6.7,0.7-13.3,1-20c1.1-146.3,2.1-292.7,3-439C434,207.7,432.8,207.3,431.5,207.5z M464.5,255.5c0,13.6,1.8,26.9,5.5,40
		c6.8,18.1,13.8,36.1,21,54c14.6,40.5,23.6,82.1,27,125c5.3,63.7-5,124.7-31,183c-1.2,2-1.4,4-0.5,6c10.2-3,20.2-6.5,30-10.5
		c8.5-3.3,15.7-8.5,21.5-15.5c36.9-55.5,48.2-115.8,34-181c-10.1-39.9-27.5-76.3-52-109c-7.7-7.5-15.7-14.9-24-22
		C479.8,304.7,469.3,281.4,464.5,255.5z M406.5,287.5c-12.1,17.6-26.3,33.6-42.5,48c-12.6,14.6-23.6,30.2-33,47
		c-45.4,81.2-47.1,163.2-5,246c4.5,6.8,10,12.6,16.5,17.5c12.8,6.7,26.1,11.7,40,15c-33.6-74.5-42.8-152-27.5-232.5
		c8.1-47.5,24.4-91.8,49-133C405.1,292.9,406,290.2,406.5,287.5z M333.5,353.5c-32.3,20.5-55.8,48.5-70.5,84
		c-23.9,71.2-8.5,132.6,46,184c-39.1-93-30.7-181.7,25-266C334.7,354.6,334.5,353.9,333.5,353.5z M540.5,354.5
		c60.2,38.8,87.1,94.1,80.5,166c-7.2,43-27.7,78-61.5,105c37.1-73.3,39.2-147.7,6.5-223C558.2,386,549.7,370,540.5,354.5z"/>
</g>
</svg>
