<?xml version="1.0" encoding="utf-8"?>
<!-- Generator: Adobe Illustrator 28.2.0, SVG Export Plug-In . SVG Version: 6.00 Build 0)  -->
<svg version="1.1" id="Layer_1" xmlns="http://www.w3.org/2000/svg" xmlns:xlink="http://www.w3.org/1999/xlink" x="0px" y="0px"
	 viewBox="0 0 840 1133" style="enable-background:new 0 0 840 1133;" xml:space="preserve">
<style type="text/css">
	.st0{opacity:0.993;fill-rule:evenodd;clip-rule:evenodd;fill:#21437D;enable-background:new    ;}
</style>
<g>
	<path class="st0" d="M434.5,232.5c91-0.3,160.2,38.1,207.5,115c38.1,72.5,39.1,145.5,3,219C604.2,638.4,542.3,678.2,459.5,686
		c-96.4,2.6-168.6-37.6-216.5-120.5c-29.9-60.8-33.6-123.1-11-187C270.3,289.4,337.8,240.8,434.5,232.5z M449.5,334.5
		c-4.2,18.1-12.4,34.1-24.5,48c-26.3,26.7-57.8,44.6-94.5,53.5c14.9,3.1,29.6,7.1,44,12c44.2,14.9,69.4,45.4,75.5,91.5
		c3.9-14.3,8.5-28.3,14-42c8.9-23.9,24.7-41.4,47.5-52.5c22-7.7,44.7-11,68-10c-27.7-6.7-54-16.7-79-30
		c-14.4-8.4-26.2-19.6-35.5-33.5C458.6,359.5,453.5,347.2,449.5,334.5z"/>
</g>
</svg>
